<?xml version="1.0" standalone="no"?>
<!DOCTYPE svg PUBLIC "-//W3C//DTD SVG 1.1//EN" "http://www.w3.org/Graphics/SVG/1.1/DTD/svg11.dtd" >
<svg xmlns="http://www.w3.org/2000/svg">
<metadata>
Created by FontForge 20120731 at Tue Mar 14 10:54:00 2017
 By admin
</metadata>
<defs>
<font id="iconfont" horiz-adv-x="1024" >
  <font-face 
    font-family="iconfont"
    font-weight="500"
    font-stretch="normal"
    units-per-em="1024"
    panose-1="2 0 6 3 0 0 0 0 0 0"
    ascent="896"
    descent="-128"
    x-height="792"
    bbox="-0.363636 -150 1294 896.333"
    underline-thickness="0"
    underline-position="0"
    unicode-range="U+0078-E64C"
  />
<missing-glyph 
 />
    <glyph glyph-name=".notdef" 
 />
    <glyph glyph-name=".notdef" 
 />
    <glyph glyph-name=".null" horiz-adv-x="0" 
 />
    <glyph glyph-name="nonmarkingreturn" horiz-adv-x="341" 
 />
    <glyph glyph-name="x" unicode="x" horiz-adv-x="1001" 
d="M281 543q-27 -1 -53 -1h-83q-18 0 -36.5 -6t-32.5 -18.5t-23 -32t-9 -45.5v-76h912v41q0 16 -0.5 30t-0.5 18q0 13 -5 29t-17 29.5t-31.5 22.5t-49.5 9h-133v-97h-438v97zM955 310v-52q0 -23 0.5 -52t0.5 -58t-10.5 -47.5t-26 -30t-33 -16t-31.5 -4.5q-14 -1 -29.5 -0.5
t-29.5 0.5h-32l-45 128h-439l-44 -128h-29h-34q-20 0 -45 1q-25 0 -41 9.5t-25.5 23t-13.5 29.5t-4 30v167h911zM163 247q-12 0 -21 -8.5t-9 -21.5t9 -21.5t21 -8.5q13 0 22 8.5t9 21.5t-9 21.5t-22 8.5zM316 123q-8 -26 -14 -48q-5 -19 -10.5 -37t-7.5 -25t-3 -15t1 -14.5
t9.5 -10.5t21.5 -4h37h67h81h80h64h36q23 0 34 12t2 38q-5 13 -9.5 30.5t-9.5 34.5q-5 19 -11 39h-368zM336 498v228q0 11 2.5 23t10 21.5t20.5 15.5t34 6h188q31 0 51.5 -14.5t20.5 -52.5v-227h-327z" />
    <glyph glyph-name="fire" unicode="&#xe645;" horiz-adv-x="1000" 
d="M792 333q0 50 -18.5 106.5t-53.5 115.5t-60 94.5t-62 84.5q-15 20 -26.5 39t-15.5 28l-3 8q-5 -5 -8 -12q2 -33 2 -66q0 -110 -30.5 -171.5t-77.5 -61.5q-38 0 -67 32t-43 91q-16 -26 -33 -59.5t-37.5 -101t-20.5 -127.5q0 -3 1 -7q-1 -6 -1 -12q0 -63 36.5 -127
t102 -106.5t138.5 -42.5t138.5 42.5t102 106.5t36.5 127v9v10zM515 148q-53 0 -91 27t-38 66q0 33 26 57t67 32q19 9 35.5 17.5t29.5 17t22.5 14t19.5 13.5t14.5 11.5t13 11.5t10 10t10 11t8.5 10v-162q2 -8 2 -17q0 -41 -39 -80t-90 -39z" />
    <glyph glyph-name="wechat" unicode="&#xe636;" horiz-adv-x="1000" 
d="M668 567q14 0 30 -2q-20 94 -109 155.5t-203 61.5q-128 0 -218.5 -76.5t-90.5 -185.5q0 -123 124 -209l-31 -93l108 54q78 -15 108 -15q13 0 29 1q-9 33 -9 65q0 101 76 172.5t186 71.5zM502 651q18 0 28.5 -10.5t10.5 -28t-10.5 -28t-28.5 -10.5t-32 11t-14 27.5
t14 27.5t32 11zM286 574q-18 0 -32.5 11t-14.5 27.5t14.5 27.5t32.5 11q17 0 27.5 -10.5t10.5 -28t-10.5 -28t-27.5 -10.5zM950 326q0 92 -78.5 158.5t-183.5 66.5q-110 0 -186.5 -66t-76.5 -159t76.5 -158.5t186.5 -65.5q31 0 92 16l85 -47l-23 77q108 82 108 178zM603 365
q-12 0 -21.5 9.5t-9.5 21.5t9.5 21.5t21.5 9.5q16 0 27 -9.5t11 -21.5t-11 -21.5t-27 -9.5zM773 365q-12 0 -21.5 9.5t-9.5 21.5t9.5 21.5t21.5 9.5q16 0 27 -9.5t11 -21.5t-11 -21.5t-27 -9.5z" />
    <glyph glyph-name="expression" unicode="&#xe639;" 
d="M969.5 433q-13.5 124 -85.5 223t-184 148.5t-236.5 36.5t-223.5 -85.5t-149 -184.5t-36.5 -236t85.5 -223t184 -148.5t236.5 -36.5t223.5 85.5t149 184.5t36.5 236zM648 572q30 0 51.5 -21.5t21.5 -51.5t-21.5 -51.5t-51.5 -21.5t-51.5 21.5t-21.5 51.5t21.5 51.5
t51.5 21.5zM376 572q30 0 51.5 -21.5t21.5 -51.5t-21.5 -51.5t-51.5 -21.5t-51.5 21.5t-21.5 51.5t21.5 51.5t51.5 21.5zM737 259q-16 -73 -81.5 -120t-143.5 -47q-81 0 -146.5 48t-79.5 123q0 19 10.5 28t22.5 9h380q6 0 11.5 -1t13.5 -4.5t12 -13t1 -22.5z" />
    <glyph glyph-name="sent" unicode="&#xe623;" 
d="M972.5 849.5q-19.5 15.5 -41.5 3.5l-874 -486q-21 -11 -19 -35t24 -32l232 -87l31 -247q3 -24 26 -31t39 11l125 143l175 -169q11 -10 26 -10q5 0 10 1q20 6 26 26l233 874q7 23 -12.5 38.5zM164 341l655 364l-475 -431l-1 0.5t-2 0.5zM389 58l-23 185l463 421l-336 -490
q-5 -3 -9 -7l-95 -109v0zM696 18l-158 152l-1 0.5l-1 0.5l329 479z" />
    <glyph glyph-name="c-wechat" unicode="&#xe637;" 
d="M580 384q-9 0 -16 -7t-7 -17q0 -8 7 -15t16 -7q13 0 21.5 6.5t8.5 15.5q0 10 -8.5 17t-21.5 7v0zM503 497q14 0 22 8t8 21t-8 21t-22 8t-24 -8t-10 -21t10 -21t24 -8v0zM512 895q-104 0 -198.5 -40.5t-163 -109t-109 -163t-40.5 -198.5t40.5 -199t109 -163.5t163 -109
t198.5 -40.5t199 40.5t163.5 109t109 163.5t40.5 199t-40.5 198.5t-109 163t-163.5 109t-199 40.5v0zM416 254q-36 0 -83 13l-84 -42l24 72q-94 66 -94 158q0 84 69 142t168 58q87 0 154.5 -46.5t82.5 -118.5q-12 2 -22 2q-85 0 -143 -55t-58 -132q0 -23 6 -50q-6 -1 -20 -1
v0zM763 172l17 -60l-63 36q-5 -1 -22 -5t-28 -5.5t-22 -1.5q-84 0 -142 50t-58 121.5t58 121.5t142 50q80 0 140.5 -50.5t60.5 -121.5q0 -74 -83 -135v0zM338 555q-14 0 -25 -8t-11 -21t11 -21t25 -8q13 0 21.5 8t8.5 21t-8.5 21t-21.5 8v0zM711 384q-10 0 -17 -7t-7 -17
q0 -8 7.5 -15t16.5 -7q12 0 20.5 6.5t8.5 15.5q0 10 -8.5 17t-20.5 7v0zM711 384z" />
    <glyph glyph-name="bottom" unicode="&#xe610;" 
d="M541 150l407 407q13 12 13 30t-12.5 30.5t-30.5 12.5t-31 -12l-376 -377l-373 374q-13 12 -31 12t-30.5 -12.5t-12.5 -30.5t12 -31l401 -400q1 -1 1.5 -2t1.5 -1q13 -13 31 -13t30 13z" />
    <glyph glyph-name="pn-text" unicode="&#xe63a;" 
d="M642 727l213 -213l-470 -471l-214 214zM727 813l214 -214l-64 -64l-214 214zM150 236l214 -214l-299 -85zM810 816l134 -134q16 -17 15.5 -41t-18.5 -42t-42 -18.5t-41 15.5l-134 134q-16 17 -15.5 41t18.5 42t42 18.5t41 -15.5z" />
    <glyph glyph-name="search" unicode="&#xe601;" 
d="M455.5 91q-95.5 0 -177 47.5t-129 129t-47.5 177t47.5 177t129 129t177 47.5t177 -47.5t129 -129t47.5 -177t-47.5 -177t-129 -129t-177 -47.5zM455.5 711q-110.5 0 -188.5 -78t-78 -188.5t78 -188.5t188.5 -78t188.5 78t78 188.5t-78 188.5t-188.5 78zM868 -22
q-22 0 -38 16l-184 184q-16 16 -16 38t15.5 38t38 16t38.5 -16l184 -185q16 -15 16 -37.5t-16 -38t-38 -15.5z" />
    <glyph glyph-name="club-manage" unicode="&#xe602;" 
d="M278 566h22q7 0 13.5 -5t8.5 -12l12 -29q9 -15 -4 -28l-15 -15q-5 -5 -5 -12.5t5 -12.5l25 -24q5 -6 12.5 -6t12.5 6l15 14q12 13 28 5l29 -13q7 -2 12 -8.5t5 -13.5v-21q0 -8 5 -13t13 -5h35q7 0 12 5t5 13v21q0 7 5 13.5t12 8.5l29 13q16 8 28 -5l15 -14q5 -6 12.5 -6
t12.5 6l25 24q5 5 5 12.5t-5 12.5l-15 15q-12 13 -4 28l12 29q2 7 9 12t14 5h21q7 0 12 5.5t5 12.5v35q0 7 -5 12t-12 5h-21q-7 0 -14 5t-9 12l-12 30q-8 15 4 28l15 14q5 6 5 13t-5 12l-25 25q-5 5 -12.5 5t-12.5 -5l-15 -15q-12 -12 -28 -4l-29 12q-7 2 -12 9t-5 14v21
q0 7 -5 12.5t-12 5.5h-35q-8 0 -13 -5.5t-5 -12.5v-21q0 -7 -5 -14t-12 -9l-29 -12q-16 -8 -28 4l-15 15q-5 5 -12.5 5t-12.5 -5l-25 -25q-5 -5 -5 -12t5 -12l15 -15q13 -13 4 -28l-12 -30q-2 -7 -8.5 -12t-13.5 -5h-22q-7 0 -12 -5t-5 -12v-35q0 -7 5 -12.5t12 -5.5z
M489.5 689q36.5 0 62 -25.5t25.5 -62t-25.5 -62t-62 -25.5t-62.5 25.5t-26 62t26 62t62.5 25.5zM786 168v159h-571v-159h-114v-229h320v229h-160v91h479v-91h-137v-229h320v229h-137z" />
    <glyph glyph-name="sms-message" unicode="&#xe647;" 
d="M954 703zM513 215l-29 28l-97 87l-281 -265h813l-280 265l-97 -89zM64 629v-513l275 256zM961 116v513l-275 -257zM513 291l441 412h-883zM513 291z" />
    <glyph glyph-name="chakan" unicode="&#xe620;" 
d="M924 -107l-33 -33q-10 -10 -24 -10t-23 10l-135 134q-50 -29 -110 -29q-88 0 -155 65t-69 155h-170v56h175q7 28 23 56h-198v57h242q0 -1 -0.5 -1.5l-0.5 -0.5q63 58 147 58q90 0 157.5 -67.5t67.5 -158.5q0 -62 -32 -114l134 -134q24 -24 4 -43zM592.5 342
q-62.5 0 -107 -44.5t-44.5 -107t48 -110.5t110.5 -48t107 44.5t44.5 107.5t-48 110.5t-110.5 47.5zM205 579h395v-56h-395v56zM600 453q-53 -15 -93 -43h-302v56h395v-13zM656 463v172h-507v-563h238q18 -63 60 -113h-298q-24 0 -40.5 16.5t-16.5 40.5v676q0 23 16.5 39.5
t40.5 16.5h507q23 0 39.5 -16.5t16.5 -39.5v-229q-2 1 -12 2t-16 1t-16 -1t-12 -2z" />
    <glyph glyph-name="home" unicode="&#xe61a;" 
d="M48 792v0v0zM846 230v-273q0 -14 -11 -25t-25 -11h-218v218h-145v-218h-218q-15 0 -25.5 11t-10.5 25v273v1v2l326 269l326 -269q1 -1 1 -3v0zM972 269l-35 -42q-4 -5 -12 -6h-1q-8 0 -12 3l-393 328l-392 -328q-7 -4 -14 -3t-11 6l-36 42q-4 5 -3.5 13t6.5 12l407 340
q18 15 43 15t43 -15l139 -116v111q0 8 5 13t13 5h109q8 0 13 -5t5 -13v-232l124 -103q6 -4 6.5 -12t-4.5 -13v0z" />
    <glyph glyph-name="pn-textpicture" unicode="&#xe63b;" 
d="M0 -128h1024v1024h-1024v-1024zM114 782h796v-796h-796v796zM228 327h284v341h-284v-341zM569 555h227v113h-227v-113zM228 100h568v113h-568v-113zM569 327h227v114h-227v-114z" />
    <glyph glyph-name="right-small" unicode="&#xe626;" 
d="M666 384l-246 246l-62 -62l185 -184l-185 -184l62 -62l184 185z" />
    <glyph glyph-name="top-small" unicode="&#xe624;" 
d="M758 292l-246 246l-246 -246l62 -62l184 185l184 -185z" />
    <glyph glyph-name="sign" unicode="&#xe629;" 
d="M199 373l147 75q-2 10 -6.5 26.5t-20 64t-32 90t-42 92t-51 82.5t-58 50.5t-64.5 5.5q-45 -18 -41.5 -85.5t34 -149t69 -153t65.5 -98.5zM206 354l148 75q6 -7 15 -19t33 -51.5t43.5 -82t38 -107.5t24.5 -129l-114 -49v0q-71 82 -127 193q-45 90 -61 170zM418 -23l97 37
l-19 -83zM878 -101h-707q-18 0 -37 6t-38.5 18.5t-32 37.5t-12.5 59v156h34v-156q0 -24 9 -41.5t20 -25.5t25.5 -13t21 -5.5t10.5 -0.5h707q41 0 62 22t21 60v740q0 20 -5.5 35t-13 22t-17 11.5t-14 5t-6.5 0.5h-717v35h717q14 -1 28 -6.5t29 -17t24.5 -34t9.5 -51.5v-739
q0 -5 -0.5 -15t-8 -32t-22.5 -38q-31 -33 -87 -33v0zM574 623h282v-69h-282v69zM438 450h415v-66h-415v66zM580 246h270v-72h-270v72z" />
    <glyph glyph-name="sign1" unicode="&#xe612;" 
d="M190 349l156 79q5 -7 15 -19.5t35 -54.5t45.5 -86.5t40 -112.5t25.5 -136l-119 -51q-7 8 -18 21.5t-40.5 55.5t-54 85t-49.5 103.5t-36 115.5zM413 -47l101 39l-19 -87zM1020 -4v775q0 31 -10 54.5t-25.5 36t-30.5 18.5t-29 6h-857v-2q-11 -1 -19 -4q-47 -19 -43.5 -89.5
t35.5 -156.5t73 -161.5t68 -102.5l155 78q-3 12 -8.5 33t-24.5 78t-39.5 105.5t-51.5 102.5t-61 83h772q3 0 7.5 -1t14.5 -5.5t17.5 -12t13.5 -23.5t6 -37v-776q0 -40 -22 -63.5t-65 -23.5h-743q-4 0 -10.5 1t-22 6t-27 13.5t-21 26.5t-9.5 43v164h-36v-164q0 -35 13.5 -61
t34 -39.5t40.5 -19.5t38 -6h743q59 0 92 35q15 16 23 39t8.5 33.5t0.5 16.5v0zM576 632h297v-72h-297v72zM434 451h436v-70h-436v70zM582 236h285v-76h-285v76z" />
    <glyph glyph-name="up-linesan" unicode="&#xe63f;" 
d="M509 831l-379 -379h218v-526h326v526h218zM635 487v-517h-245v516h-174l293 293l295 -292h-169z" />
    <glyph glyph-name="down-linesan" unicode="&#xe640;" 
d="M892 306h-218v525h-326v-525h-218l379 -380zM804 271l-295 -292l-293 293h174v516h245v-517h169z" />
    <glyph glyph-name="s-true" unicode="&#xe63c;" 
d="M964 667l-65 69l-525 -564l-249 254l-65 -69l315 -323l64 69v0z" />
    <glyph glyph-name="plus" unicode="&#xe603;" 
d="M164 420h696v-72h-696v72zM476 732h72v-696h-72v696z" />
    <glyph glyph-name="left" unicode="&#xe61d;" 
d="M740 722l-57 59l-399 -397l399 -397l57 59l-336 338z" />
    <glyph glyph-name="c-jian" unicode="&#xe630;" 
d="M678 362h-334q-9 0 -16 6.5t-7 16t7 16.5t16 7h334q10 0 16.5 -7t6.5 -16.5t-6.5 -16t-16.5 -6.5zM511 -63q-91 0 -174 35.5t-143 95.5t-95.5 143t-35.5 174t35.5 174t95.5 143t143 95.5t174 35.5t174 -35.5t143 -95.5t96 -143t36 -174t-36 -174t-96 -143t-143 -95.5
t-174 -35.5zM511 787q-109 0 -201.5 -54t-146.5 -146.5t-54 -201.5t54 -201.5t146.5 -146.5t201.5 -54t202 54t146.5 146.5t53.5 201.5t-53.5 201.5t-146.5 146.5t-202 54z" />
    <glyph glyph-name="caiwuguanli" unicode="&#xe604;" 
d="M574 -146q-23 -2 -50.5 -2t-44.5 1l-16 1q-7 1 -18 1.5t-43 6t-61 14.5t-64.5 28.5t-61 45t-43 66t-17.5 90.5t17 99.5t41.5 87.5t58.5 74.5t62 60t59 45t41.5 27.5t16.5 9v0h136q6 -4 16 -11t39 -31t55.5 -49.5t59 -63.5t56 -76t39.5 -85t16 -91.5t-16 -82t-42 -62.5
t-57.5 -44.5t-63 -30.5t-57 -17.5t-42 -8.5l-16.5 -2v0zM451 525v48h136v-48h-136v0zM585 589h-132l-70 158q42 -32 67 -32q11 0 28.5 8.5t28.5 16.5l12 8q40 -33 66 -33q11 0 28.5 8.5t28.5 17.5l12 8l-69 -160v0zM478 -6h61v59h82v48h-82v26h82v49h-57l68 137h-67l-44 -93
q-8 -16 -12 -30q-4 13 -12 30l-43 93h-68l68 -137h-57v-49h81v-26h-81v-48h81v-59v0z" />
    <glyph glyph-name="code-parameter" unicode="&#xe643;" 
d="M543 716v-34l56 -12v46h-56zM426 716v-46l45 16v30h-45zM477 832v-112h66v56h56v56h-122zM126 470v-115h84v58h-36v57h-48zM64 355h57v-49h-57v49zM428 55h50v-50h-50v50zM691 99l-28 -36h49zM606 48h51v-63h116v-50h-295v49h125zM840 288l-44 -82l44 -24v106zM840 169
h121v-121zM844 470h56v-50h-56v50zM844 350h64v70h53v-185h-48v71h-69v44zM767 733h94v-97h-94v97zM720 623v159h183v-191h-151l44 -60h165v301h-305v-170zM168 733h92v-92h-92v92zM302 606v170h-184v-188h176l-42 -57h-188v301h306v-191zM168 135h98v-99h-98v99zM305 146
v-155h-184v191h157l-34 58h-180v-305h298v160zM521 607h13.5t33 -4t47 -11t50.5 -24t48.5 -40.5t35.5 -62t18 -87.5v-13.5t-4 -33t-12 -47t-26 -50t-43 -48t-66.5 -35t-94.5 -16.5q-4 0 -12.5 1t-32.5 6.5t-45.5 14.5t-47.5 27.5t-45 43t-31 64t-11 86.5h-62q0 -6 0.5 -16
t5.5 -39.5t14.5 -57t31 -61t51 -58.5t77.5 -43.5t109 -21.5q6 0 16.5 0.5t41 5.5t58.5 15t62.5 32t59 52t42.5 80t19 112q0 6 -0.5 16t-5.5 38.5t-14.5 55t-32 58.5t-53.5 55.5t-82 40t-115 18.5zM521 607q-4 0 -11.5 -0.5t-29 -4.5t-42 -12t-45.5 -25t-44 -40.5t-34 -61.5
t-19 -85h-62q1 6 2 15.5t7 38t16.5 54t32.5 57.5t50.5 56t74.5 41t102 20zM704 135l183 -184q3 -3 8 -6t20 -4t29 10q4 3 8 8t5 21t-13 33l-181 176q-41 -43 -59 -54v0zM704 135z" />
    <glyph glyph-name="pageview" unicode="&#xe613;" 
d="M508 852q-95 0 -182 -37.5t-149.5 -100.5t-99.5 -149.5t-37 -180.5t37 -180.5t99.5 -149.5t149.5 -100.5t182.5 -37.5t181.5 37.5t148 100.5t98.5 149.5t36.5 180.5t-37 180.5t-99 149.5t-148.5 100.5t-180.5 37.5zM523 373v-373q-80 0 -154 33t-126 85t-83.5 119.5
t-31.5 135.5h395v391q68 0 133.5 -30.5t116 -82t81.5 -125t31 -153.5h-362z" />
    <glyph glyph-name="c-close" unicode="&#xe605;" 
d="M512 893q-101 0 -192.5 -39t-158 -105.5t-105.5 -158t-39 -192.5t39 -192.5t105.5 -158t158 -106t192.5 -39.5t192.5 39.5t158 106t105.5 158t39 192.5t-39 192.5t-105.5 158t-158 105.5t-192.5 39v0v0zM512 -13q-111 0 -206 55.5t-150 150t-55 206t55 206t150 149
t206 54.5t206 -54.5t150 -149t55 -206t-55 -206t-150 -150t-206 -55.5v0v0zM689 575q-9 9 -22 9t-22 -9l-133 -133l-133 133q-9 9 -22 9t-22 -9t-9 -22t9 -22l133 -133l-133 -133q-9 -9 -9 -22t9 -22t22 -9t22 9l133 133l133 -133q9 -9 22 -9t22 9t9 22t-9 22l-133 133
l133 133q9 9 9 22t-9 22v0z" />
    <glyph glyph-name="c-jia" unicode="&#xe631;" 
d="M513.5 -61q-90.5 0 -173.5 35q-80 34 -141.5 95.5t-95.5 141.5q-35 83 -35 173.5t35 173.5q34 80 95.5 141.5t141.5 95.5q83 35 173.5 35t173.5 -35q80 -34 142 -95.5t95 -141.5q36 -83 36 -173.5t-36 -173.5q-33 -80 -95 -141.5t-142 -95.5q-83 -35 -173.5 -35zM514 773
q-78 0 -149 -29.5t-126 -84.5t-84.5 -126t-29.5 -148.5t29.5 -148.5t84.5 -126t126 -84.5t149 -29.5t148.5 29.5t125.5 84.5t84.5 126t29.5 148.5t-29.5 148.5t-84.5 126t-125.5 84.5t-148.5 29.5zM514 227q-12 0 -20.5 8t-8.5 20v259q0 12 8.5 20t20.5 8t20 -8t8 -20v-259
q0 -12 -8 -20t-20 -8zM648 356h-269q-12 0 -20.5 8.5t-8.5 20t8.5 20t20.5 8.5h269q12 0 20.5 -8.5t8.5 -20t-8.5 -20t-20.5 -8.5z" />
    <glyph glyph-name="trend" unicode="&#xe614;" 
d="M50 153h172v-217h-172v217zM313 376h177v-440h-177v440zM576 291h176v-355h-176v355zM840 507h177v-571h-177v571zM2 369l410 377l236 -231l222 259l-81 84h228v-220l-80 82l-289 -350l-238 244l-351 -326z" />
    <glyph glyph-name="dropout" unicode="&#xe621;" 
d="M790 889h-563h-12.5t-32 -4t-45 -11.5t-47.5 -24t-45 -39.5t-32 -61t-13 -85v-198h387h4.5t8.5 2t10.5 5.5t8.5 11t4 17.5v90q1 3 3 7t11.5 4.5t21.5 -11.5l180 -189v0q3 -3 7 -8t4.5 -19.5t-11.5 -26.5l-180 -180v0l-2.5 -2.5t-6.5 -6t-9 -6.5t-8.5 -2.5t-7 4t-2.5 13.5
v89v4.5t-1.5 8.5t-5 11t-11 9t-18.5 4h-387v-199v-8t1 -20t3.5 -30t9.5 -35t17.5 -37.5t28 -35t39.5 -30t55 -20t72 -7.5h585q4 0 11.5 1t29.5 7.5t41.5 15.5t43.5 26.5t41.5 40.5t29.5 58.5t12 77.5v574q-1 4 -1.5 12t-5.5 30.5t-13.5 42.5t-26 45t-40.5 43t-60.5 30
t-82.5 12zM942 107q0 -37 -15.5 -67.5t-34.5 -46.5t-44 -28t-35 -15t-16 -4v0q-459 4 -570 0q-31 -1 -56.5 7.5t-41 22t-27.5 32t-17.5 34t-8.5 32.5t-3.5 23t-0.5 10v0v106h270v-61q4 -31 20.5 -49t37 -22t40.5 -2.5t33.5 5t13.5 4.5q187 179 232 235q13 15 17.5 32t2 29.5
t-6.5 23t-8 16.5l-5 5q-62 70 -186 199q-26 27 -50 40t-42.5 12.5t-35 -7.5t-28 -19.5t-19.5 -23.5t-12 -19l-4 -8v-55h-270v107q0 39 14 69.5t33.5 46t39.5 25.5t33 13l14 2h577q43 0 75 -15.5t47 -37t24.5 -43.5t11.5 -37l1 -15v-556v0z" />
    <glyph glyph-name="gift-package" unicode="&#xe61b;" horiz-adv-x="1145" 
d="M220 357v-392q11 -25 36 -32h344v424h-380zM1038 354v-389q-11 -25 -36 -32h-342v424h378v-3zM1109 578q-2 12 -10 21t-15 11l-7 3h-117q25 19 44 49q19 32 19.5 72.5t-18.5 77.5t-52 59t-74 25q-40 3 -77 -21q-30 -18 -56 -52q-34 -43 -56 -99q-1 -3 -4 -8
q-30 12 -61 11h-2q-30 2 -61 -10q-4 11 -9.5 25t-21.5 42.5t-34.5 50t-47 38.5t-59.5 17q-41 0 -72.5 -13t-49.5 -34t-27 -37.5t-14 -32.5l44 -15q1 4 3 10t10.5 20.5t20 26t32.5 21t46 10.5q23 0 45 -13.5t36.5 -31t28.5 -41.5t20 -38.5t11 -27.5q-18 -15 -18 -25.5
t15 -23.5q-34 -8 -68.5 1.5t-62.5 26.5t-77 40t-99 35q-141 22 -202 -40l-11 -14q1 -1 -1 -10.5t7 -17t28 -2.5q73 67 208 24q15 -5 76 -33.5t98 -41.5h-236q-3 -1 -8 -3t-13.5 -11t-10.5 -21v-143h451v178v1h1q8 -1 23 -1q14 0 27 1v-1h10l-1 -3v-20v0v-155h449v1
q-1 111 0 142v0v0zM720 698q3 7 5 11q5 13 11.5 27t21.5 38t31.5 42t39.5 30.5t47 11.5q65 -5 95 -63q14 -28 14 -59t-14 -54q-10 -16 -22 -27.5t-21.5 -17t-19.5 -8t-13.5 -2.5h-6.5h-1l-184 1q19 9 29.5 20t10.5 20q0 13 -23 30v0v0zM625 642q-12 0 -21 1q0 3 -2 7
q-10 21 -34 7q-5 5 -5 11q0 26 62 26q29 0 46.5 -7.5t17.5 -18.5t-17 -18.5t-47 -7.5v0v0zM625 642z" />
    <glyph glyph-name="top" unicode="&#xe61e;" 
d="M82 209q10 -11 25.5 -11t26.5 11l377 381l383 -379q10 -11 25.5 -11t26 11t10.5 26t-11 26l-406 403q-1 0 -1.5 0.5l-0.5 0.5l-0.5 0.5l-0.5 0.5q-10 11 -26 11q-15 0 -26 -11l-403 -407q-10 -11 -10 -26t11 -26v0zM82 209z" />
    <glyph glyph-name="success2" unicode="&#xe606;" 
d="M942 823q-1 -11 -3 -29t-6 -66.5t-4 -89.5t7 -83.5t22 -62.5q-5 -1 -12.5 -4t-34 -18t-55.5 -36.5t-75 -64t-94 -96.5t-111 -138t-127 -184q-1 -2 -9 8t-24.5 30t-39 45.5t-55.5 56.5t-70 61t-86.5 61.5t-101.5 55.5q-2 1 60 39.5t125.5 76l63.5 37.5l122 -237q0 8 47 99
q152 300 340 457q60 50 121 82z" />
    <glyph glyph-name="weixin-manage" unicode="&#xe607;" 
d="M917 213q60 42 34 75q-31 40 -106 -4q4 19 -7.5 30.5t-30.5 11.5q-41 0 -67 -26q-22 27 -46 26t-68 -28q-35 -22 -55 -33q-4 -2 -10 -6q10 -2 17 -2q26 0 39 -0.5t33 -2t30 -6t21 -12t15.5 -19.5t4.5 -29q0 -25 -17.5 -41.5t-37.5 -22t-39 -6.5h-149q-27 0 -57 16t-47 32
l-16 16q70 -29 120 -29h148q2 0 7 0.5t14.5 2.5t18 5.5t15 10.5t6.5 16q0 22 -20 28t-89 6q-27 0 -57 9t-47 18l-17 9q-61 44 -79 56q-22 13 -27.5 16.5t-24 12t-30.5 8.5t-32.5 -2.5t-42.5 -10.5q-22 -9 -61 -26.5t-67 -30.5l-28 -13l98 -218l51 32q21 14 36 15t43 -12
q163 -84 168 -87q20 -9 38 -13.5t30 -5t27.5 4.5t21.5 8.5t21.5 13t18.5 11.5q23 13 149.5 96.5t149.5 99.5zM460 500.5q0 -54.5 44.5 -93t108.5 -38.5q19 0 55 9l49 -27l-13 45q63 48 63 105q0 53 -46 92t-108 39q-64 0 -108.5 -38.5t-44.5 -93zM564 523q-7 0 -13 5.5
t-6 12.5t6 12.5t13 5.5q9 0 15.5 -5.5t6.5 -12.5t-6.5 -12.5t-15.5 -5.5zM663 559q10 0 16.5 -5.5t6.5 -12.5t-6.5 -12.5t-16.5 -5.5q-7 0 -12.5 5.5t-5.5 12.5t5.5 12.5t12.5 5.5zM328 492l-18 -55l64 32q46 -9 63 -9h17q-6 20 -6 38q0 60 45 102t109 42q8 0 17 -2
q-11 55 -63 91.5t-119 36.5q-75 0 -128 -45t-53 -109q0 -72 72 -122zM505 691q10 0 16 -6.5t6 -16.5t-6 -16.5t-16 -6.5q-11 0 -19 6.5t-8 16.5t8 16.5t19 6.5zM378 691q10 0 16.5 -6.5t6.5 -16.5t-6.5 -16.5t-16.5 -6.5q-11 0 -19 6.5t-8 16.5t8 16.5t19 6.5z" />
    <glyph glyph-name="had-date" unicode="&#xe62a;" 
d="M512 835q92 0 176 -35q81 -34 143.5 -96.5t96.5 -143.5q35 -84 35 -176t-35 -176q-34 -81 -96.5 -143.5t-143.5 -96.5q-84 -35 -176 -35t-176 35q-81 34 -143.5 96.5t-96.5 143.5q-35 84 -35 176t35 176q34 81 96.5 143.5t143.5 96.5q84 35 176 35zM512 896
q-139 0 -257 -68.5t-186.5 -186.5t-68.5 -257t68.5 -257t186.5 -186.5t257 -68.5t257 68.5t186.5 186.5t68.5 257t-68.5 257t-186.5 186.5t-257 68.5v0zM749 117h-474q-24 0 -41.5 17.5t-17.5 42.5v325h592v-325q0 -25 -17.5 -42.5t-41.5 -17.5v0zM601 414q0 12 -9 20.5
t-21 8.5h-118q-12 0 -21 -8.5t-9 -21t9 -21t21 -8.5h81l-81 -163q0 -6 4 -10.5t11 -4.5h29q6 0 10.5 4.5t4.5 10.5l89 178v15zM216 562q0 24 17.5 41.5t41.5 17.5h62q5 13 16.5 21.5t25.5 8.5t25 -8.5t16 -21.5h184q5 13 16 21.5t25 8.5t25.5 -8.5t16.5 -21.5h62
q24 0 41.5 -17.5t17.5 -41.5v-30h-592v30zM630 562h30v59h-30v-59zM364 562h30v59h-30v-59zM364 562z" />
    <glyph glyph-name="minus" unicode="&#xe608;" 
d="M921 347h-818q-15 0 -26 11t-11 26t11 26t26 11h818q16 0 26.5 -11t10.5 -26t-10.5 -26t-26.5 -11v0zM921 347z" />
    <glyph glyph-name="down-small" unicode="&#xe627;" 
d="M512 218l246 246l-62 62l-184 -185l-184 185l-62 -62l185 -184z" />
    <glyph glyph-name="delete" unicode="&#xe609;" 
d="M913 580h-85v-488q0 -58 -39.5 -99.5t-95.5 -41.5h-371q-56 0 -95.5 41.5t-39.5 99.5v488h-78q-18 0 -31.5 13.5t-13.5 33t13.5 33.5t31.5 14h216q1 53 35.5 99t82.5 46h129q47 0 82 -46t36 -99h223q18 0 31.5 -14t13.5 -33.5t-13.5 -33t-31.5 -13.5v0zM572 725h-129
q-7 0 -17 -17.5t-11 -33.5h185q-1 16 -11 33.5t-17 17.5v0zM738 580h-461v-488q0 -19 13 -33t32 -14h371q19 0 32 14t13 33v488zM586 151q-18 0 -31 14t-13 33v234q0 20 13 33.5t31.5 13.5t31.5 -13.5t13 -33.5v-234q0 -19 -13 -33t-32 -14v0zM418 151q-19 0 -32 14t-13 33
v234q0 20 13 33.5t31.5 13.5t32 -13.5t13.5 -33.5v-234q0 -19 -13.5 -33t-31.5 -14v0zM418 151z" />
    <glyph glyph-name="bank-card" unicode="&#xe633;" 
d="M917 0h-810q-45 0 -76 33t-31 80v542q0 47 31 80t76 33h810q45 0 76 -33t31 -80v-542q0 -47 -31 -80t-76 -33v0v0zM981 623q0 41 -27.5 70.5t-66.5 29.5h-750q-39 0 -66.5 -29.5t-27.5 -70.5v-36h938v36zM43 452v-307q0 -41 27.5 -70.5t66.5 -29.5h750q39 0 66.5 29.5
t27.5 70.5v307h-938zM661 113l64 136h214l-64 -136h-214z" />
    <glyph glyph-name="left-small" unicode="&#xe625;" 
d="M661 576l-64 63l-254 -254l254 -255l64 63l-191 192z" />
    <glyph glyph-name="eye" unicode="&#xe62d;" 
d="M512 660q142 0 259.5 -75.5t176.5 -200.5h76q-62 154 -201.5 249.5t-310.5 95.5t-310.5 -95.5t-201.5 -249.5h76q59 125 176.5 200.5t259.5 75.5zM512 108q-142 0 -259.5 76t-176.5 200h-76q62 -154 201.5 -249.5t310.5 -95.5t310.5 95.5t201.5 249.5h-76
q-59 -124 -176.5 -200t-259.5 -76zM328 384q0 -76 54 -130t130 -54t130 54t54 130t-54 130t-130 54t-130 -54t-54 -130z" />
    <glyph glyph-name="notice2" unicode="&#xe641;" 
d="M462 -50q-47 43 -100 89t-98 85q-52 44 -106 88q-10 -1 -20 -1q-8 -1 -18 -1h-15q-25 0 -41 15.5t-16 36.5v234h1l-1 1q0 26 16.5 42.5t40.5 16.5h53q85 72 154 130q30 25 58.5 48.5t52.5 42.5q23 20 38 33q16 13 20 16q28 20 45 18t27 -16.5t13.5 -36t3.5 -39.5v-750
q0 -18 -6.5 -38t-20 -31.5t-34 -9.5t-47.5 27v0v0zM762 500q19 -26 30.5 -53.5t11.5 -66.5q0 -37 -12 -66.5t-30 -54.5q-8 -10 -16 -18t-21 -8q-17 0 -28.5 12.5t-11.5 28.5q0 8 3 15h-1q4 10 10.5 19.5t12.5 19t10.5 22t4.5 30.5q0 17 -4.5 29.5t-10.5 22.5t-12.5 19.5
t-9.5 19.5q-3 6 -3 15q0 16 11.5 28t28.5 12q13 0 21 -7.5t16 -18.5v0zM814 84q-11 -8 -26 -8q-19 0 -32.5 13.5t-13.5 31.5q0 21 16 35q1 1 2 1.5t2 0.5l1 1q26 18 48 42t38.5 52.5t26 60.5t9.5 66q0 69 -35 126.5t-88 94.5q-20 14 -20 37q0 19 13.5 32.5t32.5 13.5
q15 0 27 -10q35 -24 64.5 -56t51 -69.5t33.5 -80.5t12 -88q0 -46 -12 -89t-34 -81t-51.5 -70t-64.5 -56v0zM814 84z" />
    <glyph glyph-name="calendar" unicode="&#xe638;" 
d="M645 396h115v-115h-115v115zM454 396h116v-115h-116v115zM264 396h115v-115h-115v115zM454 226h116v-115h-116v115zM264 226h115v-115h-115v115zM852 713h-84v96h-115v-193q-12 1 -20 9t-8 20v68h-197v96h-116v-193q-11 1 -19 9t-8 20v68h-114q-29 -1 -50.5 -22
t-21.5 -51v-99l1 -516q3 -28 23.5 -46.5t47.5 -19.5h682q28 1 48 19.5t24 46.5v7v509v99q0 30 -21.5 51t-51.5 22v0zM847 41h-671v425h671v-425zM847 41z" />
    <glyph glyph-name="onload" unicode="&#xe632;" 
d="M473 167q7 -7 16.5 -7t16.5 7l290 289q7 7 7 17t-7 17t-16.5 7t-16.5 -7l-250 -250v574q0 10 -7 17t-16.5 7t-16.5 -7t-7 -17v-574l-249 250q-7 7 -17 7t-17 -7t-7 -17t7 -17zM891.5 213q-9.5 0 -16.5 -7t-7 -16v-8v-140q0 -14 -10 -24t-23 -10h-690q-14 0 -23.5 10
t-9.5 24v140v8q0 9 -7 16t-17 7t-17 -7t-7 -16v-8v-158q0 -26 18.5 -44.5t44.5 -18.5h725q26 0 44.5 18.5t18.5 44.5v158v8q0 9 -7 16t-16.5 7z" />
    <glyph glyph-name="cost-manage" unicode="&#xe615;" 
d="M694 624q33 43 33 85q0 16 -4 30.5t-18 32t-36.5 30.5t-63 21.5t-93.5 8.5q-28 0 -54 -2.5t-56.5 -10.5t-52.5 -20.5t-37 -35.5t-15 -54q0 -42 33 -85q-99 -65 -164 -174.5t-65 -191.5q0 -147 111.5 -234.5t299 -87.5t299.5 87.5t112 234.5q0 82 -65.5 191.5
t-163.5 174.5zM511.5 -2q-99.5 0 -176.5 27.5t-125 87t-48 145.5q0 38 22 91t58 104.5t89.5 95.5t110.5 62q-36 17 -60 45.5t-24 52.5q0 32 42.5 46.5t111.5 14.5t111 -14.5t42 -46.5q0 -24 -23.5 -52.5t-59.5 -45.5q57 -18 110.5 -62t89.5 -95.5t58 -104.5t22 -91
q0 -86 -48 -145.5t-125.5 -87t-177 -27.5zM609 321q13 0 21.5 9t8.5 22t-8.5 22t-21.5 9h-42l47 47q9 9 9 21.5t-9 21.5t-22 9t-22 -9l-58 -58l-58 58q-9 9 -21.5 9t-21.5 -9t-9 -21.5t9 -21.5l47 -47h-43q-13 0 -22 -9t-9 -22t9 -22t22 -9h66v-33h-69q-13 0 -22 -9
t-9 -21.5t9 -21.5t22 -9h69v-59q0 -13 9 -22t21.5 -9t21.5 9t9 22v59h64q13 0 22 9t9 21.5t-9 21.5t-22 9h-64v33h67z" />
    <glyph glyph-name="c-infomation" unicode="&#xe63d;" 
d="M506 781q106 0 196 -52.5t142 -142.5t52 -196t-52 -196t-142 -142t-196 -52t-196 52t-142.5 142t-52.5 196t52.5 196t142.5 142.5t196 52.5v0zM520 275q1 33 5 47q4 15 12 26q8 12 35 35q40 36 53.5 60.5t13.5 54.5q0 50 -39 85.5t-104 35.5q-62 0 -100 -33t-45 -96
l56 -6q8 46 31.5 68t58.5 22q36 0 61 -24t25 -56q0 -18 -8.5 -33t-37 -40t-39.5 -38q-15 -18 -22 -36q-9 -23 -9 -56v-16h53zM527 165v62h-63v-62h63z" />
    <glyph glyph-name="alipay" unicode="&#xe634;" horiz-adv-x="1294" 
d="M826 251q39 72 69.5 151.5t41 119t10.5 43.5h-298v113h354v49h-354v169h-162v-169h-322v-49h322v-113h-274v-48h557q0 -6 -1 -8t-7 -8q0 -26 -13 -65.5t-25.5 -65.5t-34.5 -71q-60 24 -115 41.5t-98.5 27.5t-84 15.5t-69.5 7.5t-57.5 -1t-45.5 -6t-36 -9.5t-26.5 -10
t-19.5 -10l-12 -6.5q-57 -40 -87.5 -85t-35 -86t4 -81t29 -72t43 -56t42 -36.5t28.5 -11.5q71 -15 136.5 -17t121 9.5t105 31t93 50t79 63.5t69.5 73q9 -8 25 -8q39 -22 168 -84.5t238 -114t110 -51.5v242q-11 0 -27 2.5t-39.5 8.5t-45 11.5t-55 16t-57 18t-63 20.5
t-60.5 20l-63 21t-58 19v0zM616 178q-41 -52 -88 -90t-88.5 -57.5t-85.5 -29t-77 -9.5t-66 5t-49.5 10t-28.5 10q-36 9 -59 43t-27.5 74t15 80.5t63.5 60.5q71 23 143.5 25.5t139.5 -14t116.5 -35.5t108.5 -48q-4 -8 -8 -14t-6 -8l-3 -3v0zM616 178z" />
    <glyph glyph-name="namelist" unicode="&#xe616;" 
d="M1010 302l-131 132q-14 14 -35 14h-214q-22 0 -38 -16t-16 -38v-402q0 -22 16 -38t38 -16h340q22 0 38 16t16 38v276q0 20 -14 34zM960 2h-320v382h198l122 -122v-260zM692 256h92q13 0 22.5 9.5t9.5 22.5t-9.5 22.5t-22.5 9.5h-92q-14 0 -23 -9.5t-9 -22.5t9 -22.5
t23 -9.5zM660 192q0 -13 9 -22.5t23 -9.5h207q13 0 22.5 9.5t9.5 22.5t-9.5 22.5t-22.5 9.5h-207q-14 0 -23 -9.5t-9 -22.5zM899 128h-207q-14 0 -23 -9.5t-9 -22.5t9 -22.5t23 -9.5h207q13 0 22.5 9.5t9.5 22.5t-9.5 22.5t-22.5 9.5zM546 -64h-482v162q0 118 81.5 201
t198.5 86q8 1 15 0q56 -1 107 -23q12 -5 24.5 -0.5t18 17t0.5 24.5t-17 18l-15 6q58 33 92 91t34 127q0 104 -73.5 177.5t-177.5 73.5t-177.5 -73.5t-73.5 -177.5q0 -69 34 -127t92 -91q-72 -28 -127 -84q-100 -102 -100 -246v-169q0 -23 16.5 -39.5t39.5 -16.5h490
q13 0 22.5 9.5t9.5 22.5t-9 22.5t-23 9.5zM165 644.5q0 77.5 54.5 132.5t132.5 55t132.5 -55t54.5 -132.5t-54.5 -132.5t-132.5 -55t-132.5 55t-54.5 132.5z" />
    <glyph glyph-name="lock" unicode="&#xe62f;" 
d="M835 -128h-645q-41 0 -70.5 31.5t-29.5 76.5v323q0 45 29.5 76.5t70.5 31.5v135q0 95 43 175.5t117.5 127.5t161.5 47t161.5 -47t118 -127.5t43.5 -175.5q0 -11 -7.5 -19t-18 -8t-17.5 7.5t-7 19.5q0 122 -80 209t-193 87t-193 -87t-80 -209v-135h595q41 0 70.5 -31.5
t29.5 -76.5v-323q0 -45 -29 -76.5t-70 -31.5zM884 303q0 22 -14.5 38t-34.5 16h-645q-21 0 -35.5 -16t-14.5 -38v-323q0 -22 14.5 -38t35.5 -16h645q20 0 34.5 16t14.5 38v323zM537 150v-89q0 -11 -7.5 -19t-17.5 -8t-17.5 8t-7.5 19v89q-25 16 -25 45q0 23 14.5 38.5
t35.5 15.5t35.5 -15.5t14.5 -38.5q0 -29 -25 -45z" />
    <glyph glyph-name="promise" unicode="&#xe617;" 
d="M858 676v-374q0 -34 -17 -67t-44 -64.5t-62 -59.5t-71 -50t-70 -36t-60 -20l-8 -1l-7 1q-27 6 -61.5 20.5t-71.5 36t-73 49.5t-64.5 59.5t-46 64.5t-17.5 67v374l28 4l309 58l315 -58zM522 683l-4 1l-265 -45v-236h269v280v0zM790 403h-268v-336q26 6 56 19
q31 12 60.5 28.5t57 37t48.5 43.5t33.5 48.5t12.5 50.5v109zM790 403z" />
    <glyph glyph-name="edit" unicode="&#xe60a;" 
d="M695 453q-210 -210 -210 -211q-5 -4 -12.5 -4t-12.5 5t-5 12t5 12l211 210l-67 66l-211 -211q-5 -5 -12 -5t-12 5t-5 12.5t5 11.5l211 212l-53 53l-270 -270v0q-3 -3 -4 -6l-109 -301q-5 -13 4 -22q10 -10 23 -6l301 110q3 1 6 4v0l270 270zM302 122l-53 53l46 125
l133 -132zM857 508l-84 -84l-93 93t-129 128l85 85q22 22 54.5 22t54.5 -22l112 -112q23 -23 23 -55t-23 -55v0z" />
    <glyph glyph-name="home2" unicode="&#xe60b;" horiz-adv-x="1025" 
d="M894 347q-9 0 -15.5 -6t-6.5 -15v-348q0 -18 -12.5 -31t-30.5 -13h-610q-18 0 -31 13t-13 31v348q0 9 -6.5 15t-15.5 6t-15 -6t-6 -15v-348q0 -36 25 -61.5t61 -25.5h611q36 0 61.5 25.5t25.5 60.5v349q0 9 -6.5 15t-15.5 6zM1019 432l-434 435q-25 25 -61 25t-61 -24
l-435 -435q-5 -7 -5 -15.5t6 -14.5t14.5 -6t15.5 5l434 434q13 13 30.5 13t30.5 -13l435 -434q15 -13 29 1t1 29z" />
    <glyph glyph-name="pictures" unicode="&#xe63e;" 
d="M765 615q5 0 11.5 -0.5t24.5 -5.5t31.5 -14.5t24.5 -30.5t11 -50q1 -2 1 -5.5t-1.5 -13.5t-4.5 -19.5t-10 -21t-17.5 -20t-29 -14.5t-41.5 -6q-4 -1 -10.5 -0.5t-24 6t-30.5 15t-24 30.5t-10 49q0 4 0.5 10t5.5 22.5t14.5 29.5t30 25t48.5 14zM968 771q3 -1 6.5 -1.5
t13 -3.5t16.5 -8t13 -15.5t6 -23.5v-713q-1 -2 -1.5 -5.5t-3.5 -12.5t-8.5 -16t-16 -12.5t-25.5 -5.5v817zM1 6q1 -2 1 -6t3.5 -12.5t8.5 -15.5t15.5 -12.5t24.5 -5.5h914v150h-99l-203 207l-153 -154l-209 257l-205 -308l-45 -1l-2 613h-51v-712v0zM968 771h-914
q-3 0 -6.5 -0.5t-12.5 -3t-15.5 -7.5t-12.5 -16t-6 -25h967v52z" />
    <glyph glyph-name="personnel" unicode="&#xe600;" 
d="M503 357q98 0 168 69t70 166t-70 166t-168.5 69t-168.5 -69t-70 -166t70 -166t169 -69v0zM503 779q78 0 133.5 -54.5t55.5 -131.5t-55.5 -131.5t-134 -54.5t-134 54.5t-55.5 131.5t55.5 131.5t134.5 54.5v0zM423 -60h177h60t54 1t52 3.5t43.5 6.5t38.5 10.5t27 15
t19.5 21.5t5.5 29v17q0 122 -88 209t-212 87h-177q-124 0 -212 -87t-88 -209v-17q0 -21 9 -36.5t32.5 -25t44 -15t63 -7.5t69.5 -2.5t82 -0.5v0zM169 43q0 102 74 175t178 73h180q105 0 179 -73t74 -175v-18q0 -12 -24.5 -20t-71.5 -11t-77.5 -3.5t-79.5 -0.5h-180
q-55 0 -86.5 0.5t-76.5 3.5t-67 11t-22 20v18v0z" />
    <glyph glyph-name="insurance" unicode="&#xe649;" 
d="M892 703l-368 126q-11 4 -23 0l-368 -126q-11 -4 -18 -13.5t-7 -21.5v-258q0 -81 28 -150q16 -38 40 -72t46.5 -57.5t60 -51.5t60.5 -42.5t66 -41.5q56 -34 83 -53q10 -6 21 -6t20 6q27 18 83 53q44 27 66.5 41.5t60 42.5t60 51.5t47 57.5t39.5 72q28 69 28 150v258
q0 12 -6.5 21.5t-18.5 13.5zM375 163h-42v279q-33 -45 -54 -64l-31 29q104 106 125 250l37 -17q-3 -32 -19 -79l-16 -47v-351zM724 203q-98 47 -143 159v-197h-42v187q-36 -96 -131 -150l-30 31q78 37 127 138h-112v40h146v43h-107v177h251v-177h-102v-43h143v-40h-105
q30 -84 137 -137zM473 591h169v-97h-169v97z" />
    <glyph glyph-name="baseinfo" unicode="&#xe618;" 
d="M910 775q0 24 -17 40t-41 16h-680q-24 0 -41 -16t-17 -40v-782q0 -24 17 -40t41 -16h680q24 0 41 16t17 40v782zM753 691q24 0 41 -16.5t17 -39.5t-17 -39.5t-41 -16.5t-41 16.5t-17 39.5t17 39.5t41 16.5v0zM724 320q0 -17 -10 -30t-24 -13h-395q-14 0 -24 13t-10 30.5
t10 30t24 12.5h395q14 0 24 -12.5t10 -30.5v0zM521 691q25 0 42 -16.5t17 -39.5t-17 -39.5t-41.5 -16.5t-41.5 16.5t-17 39.5t17 39.5t41 16.5v0zM232 635q0 23 17 39.5t41 16.5t41 -16.5t17 -39.5t-17 -39.5t-41 -16.5t-41 16.5t-17 39.5v0zM738 107h-434q-18 0 -30.5 12.5
t-12.5 30t12.5 30t30.5 12.5h434q18 0 30.5 -12.5t12.5 -30t-12.5 -30t-30.5 -12.5v0zM738 107z" />
    <glyph glyph-name="notice" unicode="&#xe619;" horiz-adv-x="1261" 
d="M1147 435h-213q-19 0 -31.5 -13t-12.5 -31v-14q0 -18 12.5 -31t31.5 -13h213q18 0 31 13t13 31v14q0 18 -13 31t-31 13zM652 813q-35 -28 -147 -96t-159 -102v0q-1 0 -2 -2.5l-1 -2.5q-3 -2 -9.5 -7t-12.5 -8.5t-22 -6.5t-38 -3h-125q-52 0 -52 -49v-302q0 -51 52 -51
h126q22 0 38 -3t22 -6.5t12.5 -9t8.5 -6.5l1 -2.5t2 -2.5v0q52 -38 163 -108.5t143 -93.5q9 -7 22.5 -11.5t29.5 -4t26.5 17.5t10.5 50v762q0 33 -11 49.5t-26.5 16t-29 -5.5t-22.5 -12zM849 605q8 -15 23 -18.5t27 7.5l176 148q12 10 14.5 28t-5.5 33l-7 11q-8 15 -23 18.5
t-27 -7.5l-175 -147q-13 -11 -15.5 -29t5.5 -33zM899 174q-12 10 -27 7t-23 -18l-7 -12q-8 -15 -5.5 -32.5t15.5 -28.5l175 -148q12 -10 27 -7t23 18l7 12q8 15 5.5 33t-14.5 28z" />
    <glyph glyph-name="order-namage" unicode="&#xe62b;" 
d="M891 257h-36q-5 18 -13 34l25 25q8 8 0 16l-41 41q-3 3 -8 3t-8 -3l-25 -25q-16 8 -33 13v36q0 5 -3.5 8.5t-8.5 3.5h-57q-5 0 -8.5 -3.5t-3.5 -8.5v-36q-18 -5 -33 -13l-25 25q-4 3 -8.5 3t-8.5 -3l-40 -41q-8 -8 0 -16l25 -25q-9 -16 -14 -34h-35q-5 0 -8.5 -3.5
t-3.5 -7.5v-57q0 -5 3.5 -8.5t8.5 -3.5h35q5 -18 14 -33l-25 -25q-8 -9 0 -17l40 -40q4 -4 8.5 -4t8.5 4l25 25q15 -9 33 -14v-36q0 -4 3.5 -7.5t8.5 -3.5h57q5 0 8.5 3.5t3.5 7.5v36q17 5 33 14l25 -25q3 -4 8 -4t8 4l41 40q8 8 0 17l-25 25q8 15 13 33h36q5 0 8.5 3.5
t3.5 8.5v57q0 5 -3.5 8t-8.5 3v0zM812 189q-4 -12 -10 -23l-14 -26l-26 -14q-10 -6 -23 -9l-28 -8l-28 8q-12 3 -23 9l-26 14l-14 26q-6 11 -9 23l-8 28l8 28q3 13 9 23l15 26l25 14q11 6 23 10l28 8l28 -8q13 -4 23 -10l26 -14l14 -26q6 -10 10 -23l8 -28zM711 289
q-30 0 -51 -21t-21 -51t21 -51t51 -21t51 21t21 51t-21 51t-51 21v0zM711 191q-11 0 -18.5 7.5t-7.5 18.5t7.5 19t18.5 8t19 -8t8 -19t-8 -18.5t-19 -7.5v0zM346 621q0 -13 -9.5 -22t-22.5 -9t-22.5 9t-9.5 22t9.5 22.5t22.5 9.5t22.5 -9.5t9.5 -22.5v0zM346 505
q0 -13 -9.5 -22t-22.5 -9t-22.5 9t-9.5 22.5t9.5 22.5t22.5 9t22.5 -9.5t9.5 -22.5v0zM282 390q0 -14 9.5 -23t22.5 -9t22.5 9t9.5 22.5t-9.5 22.5t-22.5 9t-22.5 -9t-9.5 -22v0zM631 593h-212q-11 0 -19.5 8t-8.5 20t8.5 20.5t19.5 8.5h212q12 0 20.5 -8.5t8.5 -20.5
t-8.5 -20t-20.5 -8v0zM631 477h-212q-11 0 -19.5 8.5t-8.5 20t8.5 20t19.5 8.5h212q12 0 20.5 -8.5t8.5 -20t-8.5 -20t-20.5 -8.5v0zM282 281q0 -13 9.5 -22.5t22.5 -9.5t22.5 9.5t9.5 22.5t-9.5 22t-22.5 9t-22.5 -9t-9.5 -22v0zM699 1q-70 0 -126 38t-80 100h-279v551
q0 22 15.5 37t37.5 15h516q-22 -35 -23 -103v-3v-205q18 -5 35 -13v218h135q0 73 -23.5 107.5t-61.5 34.5h-578q-37 0 -62.5 -26t-25.5 -62v-551h-85q0 -47 8 -77.5t23.5 -45.5t32.5 -20.5t42 -5.5h507q28 0 50 16q-17 -5 -58 -5v0zM604 418h-185q-11 0 -19.5 -8.5t-8.5 -20
t8.5 -20t19.5 -8.5h111q31 36 74 57zM497 309h-78q-11 0 -19.5 -8t-8.5 -20t8.5 -20.5t19.5 -8.5h61q5 30 17 57z" />
    <glyph glyph-name="web-manage" unicode="&#xe60c;" 
d="M594 51v-23q0 -5 -3.5 -8.5t-8.5 -3.5h-298q-5 0 -8.5 3.5t-3.5 8.5v23q0 5 3.5 8t8.5 3h80v104h-276q-9 0 -16 6.5t-7 16.5v540q0 9 7 16t16 7h713q9 0 16 -7t7 -16v-268q-24 7 -48 8v227q0 5 -3.5 8t-7.5 3h-641q-5 0 -8 -3t-3 -8v-475q0 -4 3 -7.5t8 -3.5h405
q2 -23 9 -44h-36v-104h80q5 0 8.5 -3t3.5 -8v0zM724 466v188q0 10 -10 10h-539q-10 0 -10 -10v-390q0 -10 10 -10h353q7 80 62 139.5t134 72.5zM944 264q6 0 10.5 -4.5t4.5 -10.5v-30q0 -6 -4.5 -10.5t-10.5 -4.5h-18q-7 0 -12.5 -4t-7.5 -10l-10 -26q-8 -13 3 -24l13 -12
q11 -11 0 -22l-21 -21q-11 -11 -22 0l-12 13q-11 10 -24 3l-26 -10q-14 -5 -14 -20v-18q0 -6 -4.5 -10.5t-10.5 -4.5h-30q-7 0 -11 4.5t-4 10.5v18q0 15 -15 20l-25 10q-13 7 -24 -3l-13 -13q-11 -11 -21 0l-22 21q-10 11 0 22l13 12q11 11 4 24l-11 26q-4 14 -19 14h-18
q-6 0 -10.5 4.5t-4.5 10.5v30q0 6 4.5 10.5t10.5 4.5h18q6 0 12 4.5t7 10.5l11 25q7 13 -4 24l-13 13q-10 10 0 21l22 21q10 11 21 0l13 -12q11 -11 24 -4l25 10q15 5 15 20v18q0 6 4 10.5t11 4.5h30q6 0 10.5 -4.5t4.5 -10.5v-18q0 -6 4 -12t10 -8l26 -10q13 -7 23 4l13 12
q11 11 22 0l21 -21q11 -10 0 -21l-13 -13q-10 -11 -3 -24l10 -25q5 -15 20 -15h18zM838 234q0 31 -22 53.5t-53 22.5t-53.5 -22.5t-22.5 -53.5t22.5 -53t53.5 -22t53 22t22 53z" />
    <glyph glyph-name="copy" unicode="&#xe62c;" 
d="M677 664h-503q-46 0 -79 -33t-33 -79v-503q0 -46 33 -79t79 -33h503q47 0 79.5 33t32.5 79v503q0 46 -32.5 79t-79.5 33zM733 49q0 -23 -16.5 -39.5t-39.5 -16.5h-503q-23 0 -39.5 16.5t-16.5 39.5v503q0 23 16.5 39.5t39.5 16.5h503q23 0 39.5 -16.5t16.5 -39.5v-503z
M230 440h391v56h-391v-56zM230 328h391v56h-391v-56zM230 217h391v56h-391v-56zM230 105h224v56h-224v-56zM845 832h-503q-46 0 -79 -33t-33 -79h56q0 23 16.5 39.5t39.5 16.5h503q23 0 39.5 -16.5t16.5 -39.5v-503q0 -23 -16.5 -39.5t-39.5 -16.5v-56q46 0 79 32.5t33 79.5
v503q0 46 -33 79t-79 33z" />
    <glyph glyph-name="small-website" unicode="&#xe644;" 
d="M880 520q-6 23 -14 43q-29 69 -92 111.5t-141 42.5q-105 0 -179 -74t-74 -179t74 -179t179 -74t179 74t74 179q0 28 -6 56v0zM427 464q0 38 13 73q3 -1 11 -4t11.5 -6.5t3.5 -8.5q0 -20 1 -31.5t4.5 -25.5t12 -21t22.5 -7q2 0 7 -3t13 -10.5t12 -18.5q2 -4 6 -4t12 2
t14 2q3 0 3 -3.5t-1.5 -13.5t-1.5 -20q0 -12 14.5 -28t28.5 -26l14 -11q0 -24 2 -41q-84 1 -143 61.5t-59 144.5v0zM683 264q5 22 7.5 30t8 18.5t13.5 16.5q17 15 8.5 28.5t-24.5 11.5q-7 -1 -9.5 8.5t-8.5 10.5q-7 0 -24 15t-26 19l-13 8.5t-22 8.5q-4 0 -9 -1t-9 -2
t-7.5 -2t-6 0t-2.5 3q0 10 -3 57q0 2 -1 3q0 1 1 0q5 -1 14 -1q5 0 7.5 9.5t7.5 10.5q4 0 20 -3.5t19 -1.5q1 1 6 -7q20 -32 23 -34q8 -7 11 9q1 6 1 17q0 2 -1 9t-1 13t2 9q4 8 10.5 18.5t10 17t7 12.5t5 10t1.5 5t-5.5 1.5t-13.5 0t-14 -2.5q-3 -1 -2.5 -5.5t-3.5 -4.5
q-29 -7 -41 7q-4 6 0 11q2 4 20.5 10t20.5 19q2 17 4 42q54 -8 97.5 -42.5t63.5 -85.5q-83 -60 -29 -107q14 -13 31 -39q-17 -48 -55.5 -82.5t-88.5 -47.5v0zM754 207v-22h-549v557h549v-23q38 -16 69 -41v52q0 43 -33.5 73.5t-80.5 30.5h-458q-48 0 -81.5 -30.5
t-33.5 -73.5v-686q0 -43 33.5 -73.5t81.5 -30.5h458q47 0 80.5 30.5t33.5 73.5v203q-31 -25 -69 -40zM479.5 -8q-28.5 0 -49 19t-20.5 45.5t20.5 45t49 18.5t49 -18.5t20.5 -45t-20.5 -45.5t-49 -19z" />
    <glyph glyph-name="personal-manage" unicode="&#xe60d;" 
d="M296 625v0v0zM247.5 587q22.5 0 38.5 19.5t16 47.5v75q0 28 -16 47.5t-38.5 19.5t-38.5 -19.5t-16 -47.5v-75q0 -28 16 -47.5t38.5 -19.5zM955 659q-1 17 -7 29.5t-14.5 17.5t-17 7.5t-14.5 2.5h-6h-32v-106q0 -2 -0.5 -5t-3 -11t-7 -14.5t-14 -11.5t-21.5 -5h-9h-70h-13
q-20 1 -31 12.5t-12 22.5v11v107h-344v-107v-5t-2 -10.5t-6 -13.5t-13.5 -11t-22.5 -6h-12h-70h-9q-20 0 -31.5 12t-13.5 23l-1 12v106h-32h-6.5t-13.5 -2.5t-18 -7.5t-14.5 -17.5t-7.5 -29.5v-4v-591q0 -17 6.5 -29.5t15 -18t19 -9t14.5 -4t7 -0.5v0h766q2 0 6.5 0.5t15 4
t18.5 9t14.5 18t6.5 29.5v41v87.5t0.5 114.5t0.5 123.5v112v81.5v31q-1 2 -1 4zM512 128q0 -57 -172 -57q-174 0 -174 57v12q0 24 34.5 47.5t79.5 40.5q4 1 7.5 4.5t7 12t-2.5 21.5q-20 20 -33 50.5t-13 60.5q0 47 27 73t66.5 26t66 -26t26.5 -73q0 -30 -12.5 -60t-32.5 -51
v0q-6 -14 -3 -23t6 -11.5t5 -3.5q47 -16 82 -39.5t35 -48.5v-12zM817 149h-194q-17 0 -29.5 12t-12.5 29.5t12.5 29.5t29.5 12h194q18 0 30 -12t12 -29.5t-12 -29.5t-30 -12zM817 314h-194q-17 0 -29.5 12.5t-12.5 29.5t12.5 29.5t29.5 12.5h194q18 0 30 -12.5t12 -29.5
t-12 -29.5t-30 -12.5zM774.5 587q22.5 0 38.5 19.5t16 47.5v75q0 28 -17 47.5t-40 19.5q-22 0 -37 -19.5t-15 -47.5v-75q0 -28 16 -47.5t38.5 -19.5z" />
    <glyph glyph-name="bank" unicode="&#xe635;" 
d="M504 896l-435 -291h883zM564 365l-49 -96q-3 -5 -11 -23q-5 13 -10 22l-51 97h-42l70 -131h-57v-34h72v-20h-72v-32h72v-60h38v60h71v32h-71v20h71v34h-57l70 131h-44zM504 43q-81 0 -138.5 58.5t-57.5 141t57.5 141t139 58.5t139 -58.5t57.5 -141t-57.5 -141
t-139.5 -58.5v0zM504 469q-92 0 -157.5 -66.5t-65.5 -160.5t65.5 -160t158 -66t158 66t65.5 160t-65.5 160.5t-158.5 66.5v0zM318 -9h109v12q-63 20 -109 70v-82zM586 -9h109v97q-43 -56 -109 -80v-17zM54 590v-85h34v-514h109v514h121v-87q47 50 109 70v17h159v-22
q66 -25 109 -80v102h130v-514h109v514h34v85h-914v0zM54 -128h914v104h-914v-104zM54 -128z" />
    <glyph glyph-name="order-manage2" unicode="&#xe62e;" 
d="M960 142l63 40l-23 58l-73 -17q-16 21 -38 38l17 73l-58 24l-40 -63q-27 4 -53 0l-40 64l-57 -24l16 -73q-22 -16 -39 -38l-72 17l-24 -57l62 -41q-4 -26 0 -54l-63 -39l23 -58l73 16q17 -21 38 -38l-17 -72l58 -24l40 63q27 -4 54 0l40 -64l58 24l-17 73q22 16 38 38
l73 -17l24 58l-63 39q4 27 0 54zM887.5 71q-18.5 -44 -63 -62.5t-88.5 0t-62 63t0.5 89t62.5 62.5t88.5 -0.5t62.5 -63t-0.5 -88.5zM240 575h430v-77h-430v77zM240 358h297v-77h-297v77zM240 166h215v-77h-215v77zM537 -60h-383q-31 0 -57.5 27t-26.5 59l1 517q0 45 83 45
h116q15 0 26.5 11.5t11.5 27.5v117q0 18 0.5 27.5t2.5 24.5t8.5 23t15.5 11h327q31 0 57.5 -28t26.5 -60v-299v0v-21h69v320q0 64 -45 109t-108 45h-354q-28 0 -58.5 -23.5t-87.5 -81.5q-22 -22 -28 -28.5t-28 -28.5q-59 -57 -82 -87t-23 -59v-562q0 -64 45 -109t108 -45
h383v68z" />
    <glyph glyph-name="c-successfull" unicode="&#xe642;" horiz-adv-x="1025" 
d="M512 -128q-104 0 -199 40q-92 39 -163 110t-110 163q-40 95 -40 199t40 199q39 92 110 163t163 110q95 40 199 40q156 0 285 -86q11 -8 13.5 -21t-5 -24t-20.5 -13.5t-24 4.5q-113 76 -249 76q-91 0 -174 -35.5t-143 -95.5t-95.5 -143t-35.5 -174t35.5 -174t95.5 -143
t143 -95.5t174 -35.5t174 35.5t143 95.5t95.5 143t35.5 174q0 24 -3 48q-1 13 7.5 23t21.5 11.5t23.5 -6.5t11.5 -22q3 -27 3 -54q0 -104 -40 -199q-39 -92 -110 -163t-163 -110q-95 -40 -199 -40zM459.5 117q-13.5 0 -22.5 9l-208 208q-9 9 -9 22.5t9 22.5t22.5 9t22.5 -9
l186 -185l438 439q10 9 23 9t22.5 -9.5t9.5 -22.5t-9 -23l-462 -461q-9 -9 -22.5 -9z" />
    <glyph glyph-name="using" unicode="&#xe61c;" 
d="M561 828h-98v-493h98v493zM800 721l-70 -70q59 -48 93 -118t34 -149q0 -94 -46 -173.5t-125.5 -125.5t-173.5 -46t-173.5 46t-125.5 125.5t-46 173.5q0 79 34 149t93 118l-70 70q-73 -62 -114.5 -150t-41.5 -187q0 -90 35 -172.5t94.5 -142t142 -94.5t172.5 -35t172.5 35
t142 94.5t94.5 142t35 172.5q0 99 -41.5 187t-114.5 150z" />
    <glyph glyph-name="right" unicode="&#xe61f;" 
d="M284 46l57 -59l399 397l-399 397l-57 -59l336 -338z" />
    <glyph glyph-name="event-manage" unicode="&#xe60e;" 
d="M932 428h-318q-36 0 -51 -30v-434q0 -19 -14.5 -32.5t-35.5 -13.5t-35.5 13.5t-14.5 32.5v428q-5 16 -19.5 26t-33.5 10h-318q-23 0 -39 -15t-16 -35v-440q0 -21 16 -35.5t39 -14.5h840q23 0 39 14.5t16 35.5v440q0 20 -16 35t-39 15v0zM931 651h-312h-5q47 18 88 61
q43 44 56 90t-12.5 66.5t-74 3.5t-91.5 -61.5t-56 -90.5t13 -67q19 -16 54 -8q-28 -15 -28 -44v-85q0 -21 16.5 -36t39.5 -15h312q23 0 39.5 15t16.5 36v85q0 21 -16.5 35.5t-39.5 14.5v0zM566 681q-16 13 -5.5 46t42 65.5t66 46t51 0t6 -46.5t-42 -65.5t-66 -46t-51.5 0.5
v0zM95 465h312q23 0 39.5 15t16.5 36v85q0 23 -19 38q36 -10 57 5q26 19 16.5 66t-50 93.5t-87.5 66.5t-73.5 1t-17 -66t50.5 -94q33 -39 73 -60h-6h-312q-23 0 -39 -14.5t-16 -35.5v-85q0 -21 16 -36t39 -15v0zM363 728q-29 35 -37.5 68t9 45.5t51 -2.5t63 -49.5t37.5 -68
t-9.5 -46t-50.5 3t-63 49.5v0zM477 676q17 12 9 45.5t-37.5 68t-63 49.5t-51 2.5t-9 -45.5t38 -67.5t62.5 -50t51 -2.5v0zM683 727q32 32 42.5 65t-6 46.5t-51 0t-66 -46t-42 -65.5t6 -46.5t51 0t65.5 46.5v0zM683 727z" />
    <glyph glyph-name="c-success" unicode="&#xe60f;" 
d="M354 406l125 -125l202 201q11 11 26.5 11t26.5 -11.5t10.5 -26.5t-11.5 -26l-220 -221q-4 -7 -6 -9q-12 -11 -29 -10q-16 0 -27 11q-2 2 -5 8l-145 144q-11 11 -11 26.5t11 26.5t26.5 11t26.5 -10v0zM517 -36q-130 0 -238 75q-12 3 -19.5 13.5t-7.5 23.5l-1 3q0 16 11 27
t27 11q17 0 28 -13q89 -65 200 -65q92 0 170.5 45.5t124 124t45.5 171t-45.5 170.5t-124 124t-171 46t-171 -45.5t-124 -124t-45.5 -171.5q0 -73 42 -162q5 -6 9 -23v-4q0 -16 -11 -27t-27 -11q-13 0 -22.5 8t-13.5 20q-51 92 -51 199q0 113 55.5 208.5t151.5 151
t208.5 55.5t208 -55.5t151.5 -151t55.5 -208.5t-56 -208.5t-151 -151t-208.5 -55.5v0z" />
    <glyph glyph-name="nousing" unicode="&#xe611;" 
d="M513 -63q-117 0 -219 58q-79 44 -135 116q-53 68 -76.5 152.5t-14.5 171.5q11 89 55 169q61 107 167 169q104 59 223 59q117 0 219 -58q79 -44 135 -116q53 -68 76.5 -152.5t14.5 -171.5q-10 -89 -55 -169q-61 -107 -167 -168q-104 -60 -223 -60v0zM397 60
q56 -20 116 -20q93 0 174 47t127 129q61 110 37 234t-121 202zM513 729q-93 0 -174 -47t-127 -129q-61 -109 -37 -233.5t121 -202.5l333 592q-56 20 -116 20z" />
    <glyph glyph-name="eidit2" unicode="&#xe622;" 
d="M919 650l-141 141q-11 12 -27.5 12t-27.5 -12l-554 -554q-4 -4 -5 -9l-70 -232q-4 -14 6 -24t23 -6l233 70q5 1 9 5v0l554 554q11 12 11 28t-11 27zM238 240l431 431l130 -130l-432 -431zM880 623l-48 -49l-130 130l48 49zM151 24l53 177l125 -124z" />
    <glyph glyph-name="bellline" unicode="&#xe628;" 
d="M178 830q-57 -32 -96 -83t-55 -109t-8 -121t41 -119l130 -220l17 -282l251 142q34 -57 98.5 -74t123 16t75.5 96t-16 121l253 142l-242 155l-130 220q-33 56 -85 94t-111.5 53.5t-124 8t-121.5 -39.5v0zM648 35q-35 -20 -74 -9.5t-59 44.5l168 95q20 -35 9.5 -73
t-44.5 -57v0v0zM115 430q-53 90 -25 191.5t121 154.5t196.5 25.5t157.5 -118.5l128 -219l182 -118l-617 -348l-13 212zM115 430z" />
    <glyph glyph-name="guanwang" unicode="&#xe648;" horiz-adv-x="1026" 
d="M383 866q-5 0 -14.5 -2.5t-37.5 -12.5t-55 -23.5t-63.5 -39.5t-67.5 -57q31 -15 64.5 -29t52.5 -21l18 -6q18 59 43.5 107t42.5 66l17 18v0zM383 866zM113 696q-4 -4 -11 -13t-25 -38.5t-32.5 -62t-28 -82t-16.5 -100.5h239q-3 100 29 231q-91 27 -155 65v0v0zM113 696z
M383 -113q-5 1 -14.5 3.5t-37.5 12.5t-55 23.5t-63.5 39.5t-67.5 57q68 33 135 56q18 -59 45 -108.5t39 -63t19 -20.5v0v0zM383 -113zM113 58q-4 4 -11 13t-25 38.5t-32.5 61.5t-28 82t-16.5 101h239q-3 -100 29 -232q-19 -5 -37.5 -11.5t-33.5 -12.5t-28.5 -12t-23.5 -11
t-17 -9t-11 -6.5t-4 -1.5v0zM113 58zM482 880q-3 -1 -10 -3t-26 -15.5t-37.5 -34t-41.5 -63.5t-42 -99q14 -6 77.5 -15t79.5 -6v236v0zM482 880zM312 620q-25 -96 -28 -220h197v198q-60 0 -107 9q-30 5 -62 13v0zM312 620zM482 -125q-3 0 -10 2.5t-26 15.5t-37.5 34
t-41.5 63.5t-42 99.5q14 5 77.5 14.5t79.5 6.5q1 -34 0 -236v0v0zM482 -125zM312 134q-25 96 -28 220h197v-198q-60 0 -107 -8q-30 -6 -62 -14v0zM312 134zM627 866q6 0 15 -2.5t37 -12.5t55 -23.5t63.5 -39.5t67.5 -57q-30 -15 -64 -29t-53 -21l-18 -6q-18 59 -43.5 107
t-42.5 66l-17 18v0zM627 866zM897 696q4 -4 11 -13t25.5 -38.5t33 -62t27.5 -82t16 -100.5h-239q3 100 -28 231q40 12 78.5 28.5t56.5 26.5l19 10v0zM897 696zM627 -113q6 1 15 3.5t37 12.5t55 23.5t63.5 39.5t67.5 57q-30 15 -64 28.5t-52.5 20.5l-18.5 7
q-18 -59 -45 -108.5t-39 -63t-19 -20.5v0v0zM627 -113zM897 58q4 4 11 13t25.5 38.5t33 61.5t27.5 82t16 101h-239q3 -100 -28 -232q40 -11 78.5 -27.5t57 -26.5l18.5 -10v0zM897 58zM528 880q4 -1 10.5 -3t25.5 -15.5t37.5 -34t42 -63.5t41.5 -99q-13 -6 -77 -15t-80 -6
v236v0zM528 880zM698 620q26 -96 28 -220h-197v198q58 -6 169 22v0zM698 620zM528 -125q4 0 10.5 2.5t25.5 15.5t37.5 34t42 63.5t41.5 99.5q-13 5 -77 14.5t-80 6.5q-1 -34 0 -236v0v0zM528 -125zM698 134q26 96 28 220h-197v-198q58 7 169 -22v0zM698 134z" />
    <glyph glyph-name="birthday" unicode="&#xe64a;" 
d="M962 -48h-30v329q0 36 -25 61.5t-61 25.5h-13v90q0 31 -22 53t-54 22h-21v2v107q0 4 -3.5 7.5t-7.5 3.5h-63q-4 0 -7.5 -3.5t-3.5 -7.5v-107v-2h-106v2v107q0 4 -3 7.5t-8 3.5h-62q-5 0 -8.5 -3.5t-3.5 -7.5v-107q0 -1 1 -2h-108v2v107q0 4 -3 7.5t-8 3.5h-62
q-5 0 -8.5 -3.5t-3.5 -7.5v-107q0 -1 1 -2h-1q-31 0 -53 -22t-22 -53v-90h-12q-36 0 -61.5 -25.5t-25.5 -61.5v-329h-33q-16 0 -27.5 -11.5t-11.5 -27.5t11.5 -27.5t27.5 -11.5h901q16 0 27.5 11.5t11.5 27.5t-11.5 27.5t-27.5 11.5zM239 442q0 17 11.5 29t28.5 12h468
q16 0 27.5 -12t11.5 -29l-1 -74h-546v74zM884 -49h-741v150q17 45 38 44q9 0 15 -4.5t7.5 -9.5t5.5 -9.5t10 -4.5q20 0 33.5 17.5t17.5 34t3 27.5q-1 14 5.5 29.5t19 18t26 -10.5t18.5 -27q3 -7 10 -14t12 -10l6 -3q20 0 37.5 13.5t21.5 33.5q-6 58 27 58q18 -1 29 -15
t13 -28l2 -13q-1 -15 -16.5 -65.5t-15.5 -71.5q1 -1 -0.5 -7t0.5 -16t5.5 -19.5t14.5 -17.5t28 -10t29 2.5t17 10.5t8 16.5t3 12.5v6q0 20 -15 78.5t-14 69.5q1 1 1.5 6.5t1 7t1.5 5.5t1.5 5.5t2 5t3 5t3.5 4t5 3.5t6.5 2t7.5 1q20 1 27 -17t4 -36l-4 -19q3 -62 40 -64
q23 -1 37.5 14.5t18 30.5t2.5 26q0 3 -12.5 31t-4.5 37q3 4 6 7t5.5 4.5t6 2t5 1t6 0.5h5.5q14 0 28 -16t23.5 -35l9.5 -19q2 -2 7 -2h9l4 1q17 22 28.5 33.5t15.5 11.5l3 1q13 3 22 -6.5t12 -19.5l3 -11v-267v0zM307 668q-13 19 -17 34t0 24t10 15t11 8l6 2q14 0 18 -19.5
t1 -38.5l-3 -19q1 0 9.5 4.5t17 11t16 22t8.5 36.5q0 27 -21 59.5t-42 52.5l-21 19q4 -22 4 -35.5t-3 -18.5l-2 -4q-21 -14 -34 -26.5t-17.5 -21.5t-6 -16.5t-0.5 -10.5l1 -4q1 -19 8 -33.5t16.5 -22t18.5 -12t15 -5.5zM499 668q-13 19 -16.5 34t0.5 24t9.5 15t11.5 8l5 2
q14 0 18.5 -19.5t1.5 -38.5l-3 -19l9 4.5t17.5 11t16 22t7.5 36.5q0 27 -20.5 59.5t-42.5 52.5l-21 19q5 -22 4.5 -35.5t-2.5 -18.5l-3 -4q-20 -14 -33.5 -26.5t-18 -21.5t-6 -16.5t0.5 -10.5l1 -4q1 -19 7.5 -33.5t16 -22t19 -12t15.5 -5.5zM690 668q-13 19 -17 34t0 24
t10 15t11 8l6 2q14 0 18 -19.5t1 -38.5l-3 -19q1 0 9.5 4.5t17 11t16 22t8.5 36.5q0 27 -21 59.5t-42 52.5l-21 19q4 -22 4 -35.5t-3 -18.5l-2 -4q-20 -14 -33.5 -26.5t-18 -21.5t-6 -16.5t-0.5 -10.5l2 -4q0 -19 7 -33.5t16.5 -22t18.5 -12t16 -5.5z" />
    <glyph glyph-name="coupon" unicode="&#xe646;" 
d="M309 525h37v-118h-37v118zM309 361h37v-118h-37v118zM981 507v165q0 15 -11 25.5t-26 10.5h-864q-15 0 -26 -10.5t-11 -25.5v-164q40 -13 65.5 -47t25.5 -77t-25.5 -77.5t-65.5 -46.5v-164q0 -15 11 -25.5t26 -10.5h864q15 0 26 10.5t11 25.5v163q-40 13 -65.5 47
t-25.5 77.5t25.5 77.5t65.5 46zM853 383.5q0 -47.5 24.5 -87.5t66.5 -61v-139v0h-598v83h-37v-83h-229v0v139q42 21 66.5 61t24.5 87.5t-24.5 87.5t-66.5 61v140v0h229v-83h37v83h598v0v-140q-42 -21 -66.5 -61t-24.5 -87.5zM714 361q7 0 12.5 5.5t5.5 12.5v1q0 8 -5.5 13
t-12.5 5h-83l92 92q5 5 5 12.5t-5 12.5l-1 1q-5 5 -12.5 5t-12.5 -5l-90 -90l-90 90q-5 5 -12.5 5t-12.5 -5l-1 -1q-5 -5 -5 -12.5t5 -12.5l92 -92h-83q-8 0 -13 -5t-5 -13v-1q0 -7 5 -12.5t13 -5.5h89v-45h-89q-8 0 -13 -5.5t-5 -12.5v-1q0 -7 5 -12.5t13 -5.5h89v-42
q0 -7 5 -12.5t12 -5.5h1q8 0 13 5.5t5 12.5v42h89q7 0 12.5 5.5t5.5 12.5v1q0 7 -5.5 12.5t-12.5 5.5h-89v45h89z" />
    <glyph glyph-name="pingtai" unicode="&#xe64b;" 
d="M352 416h-192q-40 0 -68 28t-28 68v192q0 40 28 68t68 28h192q40 0 68 -28t28 -68v-192q0 -40 -28 -68t-68 -28zM160 736q-13 0 -22.5 -9.5t-9.5 -22.5v-192q0 -13 9.5 -22.5t22.5 -9.5h192q13 0 22.5 9.5t9.5 22.5v192q0 13 -9.5 22.5t-22.5 9.5h-192zM352 -64h-192
q-40 0 -68 28t-28 68v192q0 40 28 68t68 28h192q40 0 68 -28t28 -68v-192q0 -40 -28 -68t-68 -28zM160 256q-13 0 -22.5 -9.5t-9.5 -22.5v-192q0 -13 9.5 -22.5t22.5 -9.5h192q13 0 22.5 9.5t9.5 22.5v192q0 13 -9.5 22.5t-22.5 9.5h-192zM832 -64h-192q-40 0 -68 28t-28 68
v192q0 40 28 68t68 28h192q40 0 68 -28t28 -68v-192q0 -40 -28 -68t-68 -28zM640 256q-13 0 -22.5 -9.5t-9.5 -22.5v-192q0 -13 9.5 -22.5t22.5 -9.5h192q13 0 22.5 9.5t9.5 22.5v192q0 13 -9.5 22.5t-22.5 9.5h-192zM736 384q-13 0 -23 9l-192 192q-9 10 -9 23t9 23
l192 192q10 9 23 9t23 -9l192 -192q9 -10 9 -23t-9 -23l-192 -192q-10 -9 -23 -9zM589 608l147 -147l147 147l-147 147z" />
    <glyph glyph-name="xueyuan-jibenxinxi" unicode="&#xe64c;" 
d="M804 800h-32v-819h32q22 0 36.5 15t14.5 36v717q0 21 -14.5 36t-36.5 15zM193 587h104q19 0 32 13t13 31.5t-13 32t-32 13.5h-104q-19 0 -32 -13.5t-13 -32t13 -31.5t32 -13zM193 346h104q19 0 32 13t13 31.5t-13 31.5t-32 13h-104q-19 0 -32 -13t-13 -31.5t13 -31.5
t32 -13zM342 152.5q0 18.5 -13 31.5t-32 13h-105q-18 0 -31 -13t-13 -31.5t13 -32t31 -13.5h105q19 0 32 13.5t13 32zM228 749v-33h69q35 0 59.5 -25t24.5 -59.5t-24.5 -59t-59.5 -24.5h-69v-74h69q35 0 59.5 -24.5t24.5 -59t-24.5 -59t-59.5 -24.5h-69v-71h69
q35 0 59.5 -24.5t24.5 -59.5t-24.5 -59.5t-59.5 -24.5h-69v-36q0 -21 15 -36t36 -15h429v819h-429q-21 0 -36 -15t-15 -36z" />
  </font>
</defs>
</svg>
